<svg height="502pt" viewBox="-15 -21 502.67633 502" width="502pt" xmlns="http://www.w3.org/2000/svg"><path d="m83.757812 300.652344h8.582032v117.492187c.027344 22.890625 18.574218 41.441407 41.46875 41.46875h203.554687c22.890625-.027343 41.441407-18.578125 41.472657-41.46875v-117.492187h8.582031c2.613281 0 5.210937-.136719 7.773437-.375v102.9375c0 6.203125 5.019532 11.222656 11.21875 11.222656 6.199219 0 11.222656-5.019531 11.222656-11.222656v-108.234375c37.671876-14.652344 59.589844-54.027344 52.199219-93.761719-7.386719-39.738281-42-68.601562-82.414062-68.726562h-140.609375v-31.890626c26.054687-5.8125 43.199218-30.75 39.300781-57.160156-3.894531-26.410156-27.519531-45.332031-54.140625-43.3749998-26.625 1.9570318-47.222656 24.1367188-47.214844 50.8281248 0 6.199219 5.027344 11.21875 11.222656 11.21875 6.203126 0 11.222657-5.019531 11.222657-11.21875.074219-15.660156 12.816406-28.300781 28.476562-28.25 15.65625.046875 28.320313 12.765625 28.296875 28.429688-.023437 15.660156-12.726562 28.335937-28.386718 28.335937-6.199219 0-11.222657 5.027344-11.222657 11.222656v41.859376h-140.605469c-46.3125.175781-83.757812 37.765624-83.757812 84.078124 0 46.308594 37.445312 83.902344 83.757812 84.082032zm272.632813 117.492187c-.015625 10.5-8.523437 19.015625-19.027344 19.023438h-203.554687c-10.5-.007813-19.011719-8.523438-19.027344-19.023438v-177.953125c.015625-10.5 8.527344-19.007812 19.027344-19.023437h203.554687c10.503907.015625 19.011719 8.523437 19.027344 19.023437zm22.445313-139.9375v-38.015625c.003906-6.285156-1.429688-12.496094-4.195313-18.148437 12.089844 3.152343 20.53125 14.0625 20.550781 26.558593v29.089844c-2.578125.335938-5.175781.507813-7.773437.511719zm-295.078126-123.269531h303.660157c27.925781.121094 52.289062 19 59.371093 46.023438 7.089844 27.015624-4.875 55.421874-29.15625 69.230468v-21.589844c-.027343-27.535156-22.339843-49.84375-49.875-49.878906h-233.949218c-22.894532.027344-41.441406 18.578125-41.46875 41.46875v38.011719h-8.582032c-33.933593-.148437-61.363281-27.699219-61.363281-61.632813 0-33.933593 27.429688-61.484374 61.363281-61.632812zm0 0"/><path d="m321.402344 295.179688c-6.199219 0-11.222656 5.019531-11.222656 11.222656v78.65625c.011718 3.15625-2.53125 5.726562-5.6875 5.746094h-21.820313c-6.199219 0-11.222656 5.027343-11.222656 11.222656 0 6.199218 5.023437 11.222656 11.222656 11.222656h21.820313c15.542968-.035156 28.128906-12.644531 28.132812-28.191406v-78.65625c0-6.203125-5.027344-11.222656-11.222656-11.222656zm0 0"/></svg>