<?xml version="1.0"?>
<svg xmlns="http://www.w3.org/2000/svg" viewBox="0 0 512 512" width="512" height="512"><g id="Snowflake-5" data-name="Snowflake"><g id="Outline"><circle cx="279.81" cy="208" r="8"/><path d="M291.02,237.33l.01.01L302.59,256l-24.78,40H234.65c-.15,0-.3,0-.45.01L209.41,256l24.78-40h13.62a8,8,0,0,0,0-16H229.74a7.933,7.933,0,0,0-6.8,3.79l-29.74,48a7.943,7.943,0,0,0,0,8.42l29.74,48a7.96,7.96,0,0,0,6.81,3.79,8.076,8.076,0,0,0,2.44-.38,8.156,8.156,0,0,0,2.46.38h47.61a7.955,7.955,0,0,0,6.8-3.79l29.74-48a7.943,7.943,0,0,0,0-8.42L304.62,228.9a8,8,0,0,0-13.6,8.43Z"/><path d="M234,38a8.024,8.024,0,1,0-5.65-2.35A7.958,7.958,0,0,0,234,38Z"/><path d="M156,112a28,28,0,1,0-28-28A28.032,28.032,0,0,0,156,112Zm0-40a12,12,0,1,1-12,12A12.013,12.013,0,0,1,156,72Z"/><path d="M356,112a28,28,0,1,0-28-28A28.032,28.032,0,0,0,356,112Zm0-40a12,12,0,1,1-12,12A12.013,12.013,0,0,1,356,72Z"/><path d="M156,400a28,28,0,1,0,28,28A28.032,28.032,0,0,0,156,400Zm0,40a12,12,0,1,1,12-12A12.013,12.013,0,0,1,156,440Z"/><path d="M356,400a28,28,0,1,0,28,28A28.032,28.032,0,0,0,356,400Zm0,40a12,12,0,1,1,12-12A12.013,12.013,0,0,1,356,440Z"/><path d="M509.02,250.97a8,8,0,0,0-11.31,0l-27.76,27.77L407.41,256l50.55-18.38a8,8,0,0,0-5.47-15.04l-70.817,25.753H348.914l-15.957-29.012,68.007,6.23q.372.033.739.033a8,8,0,0,0,.721-15.967l-48.042-4.4,22.683-13.991,40.732,3.732q.367.033.731.033a8,8,0,0,0,6.431-3.242l37.411-50.575a8,8,0,0,0-7.5-12.687l-62.346,8.394a8,8,0,0,0-6.264,4.727l-15.028,34.416-23.9,14.739,18.669-42.754a8,8,0,0,0-14.663-6.4L324.29,203.562,309.1,175.939l27.586-46.987a8,8,0,1,0-13.8-8.1L295.2,168H264V129.41l31.52-86.68a8.039,8.039,0,0,0-1.86-8.39L262.29,2.97a8,8,0,1,0-11.32,11.32l27.77,27.76L256,104.59,237.62,54.04a8,8,0,0,0-15.04,5.47v.01L248,129.41V168H216.8l-27.681-47.149a8,8,0,1,0-13.8,8.1L202.9,175.939l-15.911,28.929-27.623-63.261a8,8,0,0,0-14.663,6.4l18.459,42.274-24.126-15.264L124.45,141.608a8,8,0,0,0-6.264-4.727L55.84,128.487a8,8,0,0,0-7.5,12.687l37.411,50.575a8,8,0,0,0,6.431,3.242q.363,0,.731-.033l41.678-3.819,22.184,14.037-48.488,4.441a8,8,0,0,0,.72,15.967c.245,0,.491-.011.74-.033l69.364-6.354-16.026,29.136H130.327L42.734,216.481a8.005,8.005,0,0,0-8.391,1.862l-32,32a8,8,0,0,0,0,11.314l32,32a8,8,0,0,0,8.391,1.862l85.759-31.186h34.96l15.079,27.417-68.784-6.3a8,8,0,1,0-1.46,15.934l47.194,4.323-23.621,13.9-38.947-3.568a8,8,0,0,0-7.162,3.209L48.341,369.826a8,8,0,0,0,7.5,12.687l62.346-8.394a8,8,0,0,0,6.264-4.727l15.782-36.143,23.5-13.834-19.027,43.576a8,8,0,1,0,14.663,6.4l27.38-62.7L202.9,336.061l-27.586,46.987a8,8,0,1,0,13.8,8.1L216.8,344H248v38.59l-31.519,86.676a8,8,0,0,0,1.862,8.391l32,32a8,8,0,0,0,11.314,0l32-32a8,8,0,0,0,1.862-8.391L264,382.59V344h31.2l27.681,47.149a8,8,0,1,0,13.8-8.1L309.1,336.061,324.533,308l26.81,61.4a8,8,0,0,0,14.663-6.4L346.8,319l23.3,13.369,16.167,37.027a8,8,0,0,0,6.264,4.727l62.346,8.394a8,8,0,0,0,7.5-12.687l-37.411-50.575a8,8,0,0,0-7.162-3.209l-37.943,3.477-24.147-13.857,46.717-4.279a8,8,0,1,0-1.46-15.934l-67.428,6.177,15.011-27.293h34.96L469.27,295.52a8.012,8.012,0,0,0,8.39-1.86l31.36-31.37A8.015,8.015,0,0,0,509.02,250.97Zm-109.9-98.833,39.132-5.268-23.482,31.744-26.165-2.4ZM95.938,178.613,72.456,146.869l39.133,5.268L122.1,176.216ZM42.054,278.741,19.313,256l22.741-22.741L104.591,256Zm69.535,80.122-39.133,5.268,23.482-31.744,26.165,2.4Zm303.184-26.476,23.482,31.744-39.132-5.268-10.515-24.079ZM278.741,469.946,256,492.687l-22.741-22.741L256,407.409ZM295.27,328H216.73l-39.6-72,39.6-72h78.54l39.6,72Z"/><path d="M482,242a8.006,8.006,0,1,0-5.65-2.34A7.949,7.949,0,0,0,482,242Z"/></g></g></svg>
