<svg height="477pt" viewBox="-29 0 477 477.302" width="477pt" xmlns="http://www.w3.org/2000/svg"><path d="m355.832031 271.195312c0-61.664062-38.0625-116.148437-95.164062-136.945312v-38.738281c0-3.316407-2.6875-6-6-6h-15.5v-37.921875c0-3.316406-2.6875-6-6-6h-19.625v-39.589844c0-3.3125-2.683594-6-6-6-3.3125 0-6 2.6875-6 6v39.589844h-15.042969c-3.316406 0-6 2.683594-6 6v37.921875h-15.046875c-3.3125 0-6 2.683593-6 6v38.742187c-26.953125 9.957032-50.390625 27.605469-67.410156 50.753906-18.390625 24.96875-28.277344 55.179688-28.210938 86.1875 0 80.503907 65.5 146 146 146s146-65.496093 146-146zm-163.332031-213.605468h34.664062v31.921875h-34.664062zm-25.167969 86.625c2.457031-.8125 4.117188-3.113282 4.117188-5.699219v-37.003906h77.214843v37.003906c0 2.589844 1.660157 4.886719 4.117188 5.699219 25.191406 8.320312 47.289062 24.039062 63.40625 45.113281-3.734375-1.21875-7.195312-2.582031-10.742188-3.980469-12.003906-4.734375-24.421874-9.625-48.949218-9.625-24.46875 0-36.867188 4.863282-48.859375 9.5625-11.457031 4.492188-22.277344 8.738282-44.476563 8.738282-22.398437 0-33.238281-4.257813-44.714844-8.761719-2.746093-1.078125-5.546874-2.171875-8.523437-3.222657 15.527344-17.375 35.316406-30.414062 57.410156-37.824218zm-65.613281 47.890625c.027344-.039063.058594-.078125.085938-.117188 4.324218 1.335938 8.207031 2.855469 12.257812 4.441407 12.007812 4.714843 24.425781 9.589843 49.097656 9.589843 24.46875 0 36.867188-4.863281 48.859375-9.5625 11.457031-4.492187 22.277344-8.738281 44.476563-8.738281 22.25 0 33.082031 4.269531 44.550781 8.792969 7.25 2.855469 14.734375 5.796875 25.007813 7.664062 6.726562 11.75 11.632812 24.457031 14.554687 37.679688-16.226563-1-25.507813-4.640625-35.257813-8.46875-11.992187-4.699219-24.390624-9.5625-48.855468-9.5625-24.46875 0-36.867188 4.863281-48.859375 9.5625-11.457031 4.496093-22.277344 8.738281-44.476563 8.738281-22.199218 0-33.019531-4.242188-44.476562-8.738281-9.359375-3.667969-19.011719-7.441407-34.472656-8.914063 4.316406-11.546875 10.210937-22.4375 17.511718-32.367187zm-25.886719 79.089843c-.003906-11.820312 1.554688-23.589843 4.636719-35 15.347656 1.125 24.367188 4.644532 33.839844 8.359376 11.992187 4.699218 24.390625 9.566406 48.855468 9.566406 24.46875 0 36.867188-4.863282 48.859376-9.566406 11.457031-4.492188 22.277343-8.734376 44.476562-8.734376s33.019531 4.242188 44.476562 8.734376c10.761719 4.222656 21.871094 8.574218 41.75 9.417968.730469 5.710938 1.101563 11.464844 1.105469 17.222656 0 6.167969-.425781 12.328126-1.273437 18.4375-10.894532-1.765624-18.539063-4.804687-26.558594-8-12.785156-5.101562-26-10.363281-51.957031-10.363281-26.15625 0-39.414063 5.199219-52.234375 10.226563-12.328125 4.832031-23.96875 9.398437-47.855469 9.398437-23.890625 0-35.554687-4.574219-47.914063-9.421875-10.6875-4.1875-21.707031-8.503906-40.199218-9.863281-.003906-.140625-.007813-.277344-.007813-.414063zm.585938 12.492188c15.792969 1.332031 25.277343 5.050781 35.242187 8.957031 12.851563 5.035157 26.144532 10.246094 52.292969 10.246094s39.414063-5.199219 52.234375-10.226563c12.324219-4.832031 23.96875-9.398437 47.855469-9.398437 23.648437 0 35.242187 4.621094 47.511719 9.511719 8.261718 3.292968 16.773437 6.675781 28.835937 8.65625-2.859375 12.320312-7.457031 24.167968-13.660156 35.1875-8.550781-1.679688-14.921875-4.21875-21.636719-6.898438-11.957031-4.765625-24.320312-9.691406-48.601562-9.691406-24.46875 0-36.867188 4.859375-48.855469 9.5625-11.457031 4.496094-22.277344 8.738281-44.476563 8.738281-22.199218 0-33.042968-4.253906-44.527344-8.757812-9.117187-3.574219-18.535156-7.257813-33.308593-8.835938-4.730469-11.859375-7.730469-24.335937-8.90625-37.050781zm133.414062 121.507812c-14.339843.011719-28.589843-2.289062-42.199219-6.8125 21.554688-.554687 33.152344-5.101562 44.390626-9.507812 11.457031-4.492188 22.277343-8.738281 44.476562-8.738281 9.078125-.15625 18.140625.835937 26.972656 2.953125-21.84375 14.445312-47.457031 22.136718-73.640625 22.105468zm85.644531-31.023437c-9.402343-3.265625-20.941406-6.035156-38.976562-6.035156-24.46875 0-36.867188 4.863281-48.859375 9.566406-11.457031 4.492187-22.277344 8.734375-44.476563 8.734375-8.683593.125-17.351562-.75-25.835937-2.597656-19.355469-12.511719-35.191406-29.769532-45.988281-50.128906 9.183594 1.660156 15.910156 4.292968 22.917968 7.039062 12.019532 4.710938 24.449219 9.585938 48.90625 9.585938 24.460938 0 36.867188-4.863282 48.859376-9.566407 11.457031-4.492187 22.277343-8.738281 44.476562-8.738281 21.972656 0 32.746094 4.296875 44.152344 8.84375 6.273437 2.652344 12.730468 4.839844 19.324218 6.539062-6.925781 9.980469-15.167968 18.980469-24.5 26.757813zm0 0"/><path d="m203.832031 445.152344v26.148437c0 3.316407 2.6875 6 6 6s6-2.683593 6-6v-26.148437c0-3.3125-2.6875-6-6-6s-6 2.6875-6 6zm0 0"/><path d="m38.300781 217.625c0-3.3125-2.683593-6-6-6h-26.148437c-3.316406 0-6 2.6875-6 6 0 3.316406 2.683594 6 6 6h26.148437c3.316407 0 6-2.683594 6-6zm0 0"/><path d="m413.511719 211.625h-26.148438c-3.316406 0-6 2.6875-6 6 0 3.316406 2.683594 6 6 6h26.148438c3.316406 0 6-2.683594 6-6 0-3.3125-2.683594-6-6-6zm0 0"/><path d="m374.964844 374.273438c-2.351563-2.3125-6.121094-2.296876-8.453125.03125-2.328125 2.332031-2.34375 6.105468-.035157 8.453124l18.492188 18.496094c2.347656 2.308594 6.121094 2.292969 8.449219-.035156 2.332031-2.328125 2.347656-6.101562.035156-8.449219zm0 0"/><path d="m34.695312 401.253906 18.492188-18.5c1.535156-1.511718 2.140625-3.730468 1.589844-5.816406-.550782-2.082031-2.179688-3.710938-4.261719-4.261719s-4.304687.054688-5.816406 1.59375l-18.488281 18.492188c-1.539063 1.511719-2.144532 3.730469-1.59375 5.816406.554687 2.082031 2.179687 3.710937 4.261718 4.261719 2.085938.550781 4.304688-.054688 5.816406-1.59375zm0 0"/></svg>