<svg height="391pt" viewBox="-54 0 391 391.86709" width="391pt" xmlns="http://www.w3.org/2000/svg"><path d="m18.367188 276.160156c9.898437-.011718 17.917968-8.03125 17.929687-17.929687v-5.933594h17.863281c10.359375.007813 20.574219-2.453125 29.792969-7.179687v92.167968c.011719 7.585938 4.789063 14.339844 11.929687 16.882813v31.699219c0 3.3125 2.6875 6 6 6 3.316407 0 6-2.6875 6-6v-31.699219c7.144532-2.542969 11.917969-9.296875 11.933594-16.878907v-151.53125c0-.222656-.015625-.445312-.039062-.667968-.875-35.625-29.984375-64.058594-65.617188-64.105469h-17.863281v-5.929687c-.074219-9.851563-8.082031-17.800782-17.933594-17.800782-9.847656 0-17.855469 7.949219-17.929687 17.800782v143.175781c.011718 9.898437 8.03125 17.917969 17.933594 17.929687zm89.449218 61.125c0 3.277344-2.65625 5.933594-5.933594 5.933594-3.273437 0-5.929687-2.65625-5.929687-5.933594v-100.046875c4.503906-3.730469 8.492187-8.046875 11.863281-12.828125zm-47.65625-203.957031c27.140625 3.050781 47.65625 26.003906 47.65625 53.3125 0 27.3125-20.515625 50.265625-47.65625 53.3125zm-23.863281-.34375h11.863281v107.3125h-11.863281zm-23.863281-17.929687c.042968-3.246094 2.683594-5.855469 5.929687-5.855469 3.246094 0 5.890625 2.609375 5.933594 5.855469v143.175781c.027344 2.136719-1.097656 4.125-2.945313 5.199219-1.84375 1.078124-4.128906 1.078124-5.976562 0-1.84375-1.074219-2.96875-3.0625-2.941406-5.199219zm0 0"/><path d="m176.53125 256.910156v31.699219c0 3.3125 2.6875 6 6 6s6-2.6875 6-6v-31.699219c7.140625-2.542968 11.917969-9.296875 11.929688-16.878906v-92.164062c9.222656 4.726562 19.433593 7.1875 29.792968 7.179687h17.863282v5.929687c.074218 9.851563 8.082031 17.800782 17.933593 17.800782 9.851563 0 17.855469-7.949219 17.929688-17.800782v-143.179687c-.074219-9.851563-8.078125-17.796875-17.929688-17.796875-9.851562 0-17.859375 7.945312-17.933593 17.796875v5.933594h-17.863282c-35.632812.042969-64.742187 28.480469-65.617187 64.105469-.023438.222656-.035157.445312-.039063.667968v151.527344c.015625 7.582031 4.789063 14.335938 11.933594 16.878906zm83.585938-239.113281c.042968-3.246094 2.6875-5.855469 5.933593-5.855469 3.246094 0 5.886719 2.609375 5.929688 5.855469v143.179687c-.042969 3.246094-2.683594 5.851563-5.929688 5.851563-3.246093 0-5.890625-2.605469-5.933593-5.851563zm-23.863282 17.933594h11.863282v107.3125h-11.863282zm-12 .34375v106.625c-27.136718-3.050781-47.65625-26-47.65625-53.3125s20.519532-50.261719 47.65625-53.3125zm-47.65625 91.082031c3.371094 4.78125 7.359375 9.09375 11.863282 12.828125v100.046875c0 3.277344-2.65625 5.933594-5.929688 5.933594-3.277344 0-5.933594-2.65625-5.933594-5.933594zm0 0"/></svg>