<svg height="472pt" viewBox="-50 0 472 472.25055" width="472pt" xmlns="http://www.w3.org/2000/svg"><path d="m13.6875 303.835938h44.148438v49.835937c0 11.84375 4.792968 23.179687 13.289062 31.429687s19.972656 12.707032 31.808594 12.359376c1.992187-.0625 19.589844-.164063 49.550781-.289063h.078125c8.1875-.011719 15.394531 5.394531 17.675781 13.257813v55.820312c0 3.3125 2.6875 6 6 6h151.78125c1.652344 0 3.230469-.683594 4.363281-1.882812 1.136719-1.203126 1.722657-2.824219 1.625-4.472657-.058593-1-5.902343-101.253906-.015624-164.5 1.601562-17.179687 17.980468-58.328125 19.457031-62 26.164062-50.0625 24.703125-110.066406-3.871094-158.792969-28.148437-48.402343-78.117187-78.484374-133.667969-80.484374-1.507812-.054688-3.019531-.0898442-4.539062-.1054692-94.253906-1.0781248-172.644532 72.2578122-177.832032 166.3789062-.179687 2.953125-.257812 28.292969-.273437 34.578125l-32.246094 84.472656c-1.59375 4.167969-1.035156 8.851563 1.496094 12.527344s6.707031 5.871094 11.171875 5.871094zm195.09375-291.828126c.816406 0 1.636719-.011718 2.457031 0 1.417969.015626 2.832031.050782 4.238281.101563 3.808594.136719 7.574219.421875 11.300782.828125v107.773438c-6.078125.371093-12.105469 1.324218-18 2.84375zm24 120.507813c46.390625 0 84 37.609375 84 84 0 46.394531-37.609375 84-84 84-46.394531 0-84-37.605469-84-84 .054688-46.367187 37.628906-83.941406 84-84zm-220.554688 157.207031 32.640626-85.5c.261718-.679687.394531-1.398437.394531-2.125.03125-12.390625.125-32.847656.257812-35.015625 4.507813-82.175781 69.203125-148.296875 151.261719-154.597656v115.042969c-45.3125 18.332031-69.617188 67.777344-56.453125 114.847656 13.160156 47.070312 59.589844 76.738281 107.835937 68.90625 48.246094-7.832031 82.902344-50.660156 80.5-99.480469-2.402343-48.816406-41.101562-88.035156-89.882812-91.089843v-105.988282c17.714844 3.359375 34.652344 9.996094 49.9375 19.566406 67.207031 42.441407 90.664062 129.3125 53.953125 199.8125-.089844.171876-.171875.347657-.242187.523438-.757813 1.871094-18.558594 46.007812-20.386719 65.660156-5.105469 54.839844-1.539063 136.714844-.359375 159.964844h-139.449219v-50.617188c0-.492187-.058594-.984374-.179687-1.464843-3.378907-13.53125-15.546876-23.019531-29.492188-23h-.128906c-21.273438.089843-47.191406.214843-49.875.300781-8.59375.246094-16.917969-2.992188-23.082032-8.984375-6.164062-5.988281-9.644531-14.21875-9.640624-22.816406v-55.832031c0-3.3125-2.6875-6-6-6h-50.148438c-.515625.003906-.996094-.25-1.285156-.671876-.292969-.421874-.355469-.960937-.175782-1.441406zm0 0"/><path d="m232.78125 292.515625c41.972656 0 76-34.023437 76-76 0-41.972656-34.027344-76-76-76-41.976562 0-76 34.027344-76 76 .046875 41.957031 34.046875 75.953125 76 76zm0-140c35.34375 0 64 28.65625 64 64 0 35.347656-28.65625 64-64 64-35.347656 0-64-28.652344-64-64 .039062-35.328125 28.667969-63.957031 64-64zm0 0"/><path d="m209.058594 263.105469c9.28125 0 16.855468-6.550781 17.246094-14.730469.023437-.214844.035156-.433594.035156-.652344v-36.835937l35.441406-8.742188v10.695313c-1.71875-.492188-3.496094-.742188-5.28125-.742188-9.527344 0-17.28125 6.902344-17.28125 15.382813s7.753906 15.382812 17.28125 15.382812c9.28125 0 16.851562-6.550781 17.242188-14.726562.023437-.21875.039062-.4375.039062-.65625v-51.550781c0-1.84375-.851562-3.585938-2.300781-4.722657-1.453125-1.136719-3.347657-1.542969-5.136719-1.101562l-47.441406 11.699219c-2.679688.660156-4.5625 3.066406-4.5625 5.824218v45.449219c-1.714844-.492187-3.492188-.742187-5.28125-.742187-9.527344 0-17.277344 6.902343-17.277344 15.382812 0 8.484375 7.75 15.386719 17.277344 15.386719zm47.441406-32.242188c-3.023438 0-5.28125-1.785156-5.28125-3.382812 0-1.597657 2.257812-3.382813 5.28125-3.382813s5.28125 1.785156 5.28125 3.382813c0 1.597656-2.261719 3.382812-5.28125 3.382812zm-30.160156-38.53125 35.441406-8.742187v6.195312l-35.441406 8.742188zm-17.28125 52.007813c3.023437 0 5.28125 1.785156 5.28125 3.382812s-2.257813 3.382813-5.28125 3.382813c-3.019532 0-5.277344-1.785157-5.277344-3.382813s2.257812-3.382812 5.277344-3.382812zm0 0"/></svg>