<svg height="492pt" viewBox="0 -60 492 492" width="492pt" xmlns="http://www.w3.org/2000/svg"><path d="m334.621094 23.035156v-17.035156c0-3.3125-2.683594-6-6-6h-322.621094c-3.3125 0-6 2.6875-6 6v360.578125c0 3.3125 2.6875 6 6 6h322.621094c3.316406 0 6-2.6875 6-6v-17.035156c87.320312-3.167969 157.378906-75.175781 157.378906-163.253907 0-88.078124-70.058594-160.085937-157.378906-163.253906zm-268.300782 337.542969h-54.320312v-348.578125h54.320312zm256.300782 0h-244.300782v-348.578125h244.300782zm12-179.253906c2.578125 2.28125 4.054687 5.558593 4.054687 9 0 3.441406-1.476562 6.71875-4.054687 9zm0 31.695312c9.621094-3.398437 16.054687-12.492187 16.054687-22.695312s-6.433593-19.296875-16.054687-22.691407v-33.277343c27.847656 3.984375 48.527344 27.839843 48.527344 55.96875 0 28.132812-20.679688 51.984375-48.527344 55.96875zm0 124.515625v-79.144531c34.515625-4.058594 60.53125-33.3125 60.53125-68.066406 0-34.753907-26.015625-64.003907-60.53125-68.0625v-87.21875c80.699218 3.160156 145.378906 69.785156 145.378906 151.246093 0 81.457032-64.679688 148.085938-145.378906 151.246094zm0 0"/><path d="m431.269531 151.25c-3.171875.949219-4.972656 4.296875-4.023437 7.46875 2.875 9.601562 4.332031 19.570312 4.328125 29.589844 0 3.316406 2.6875 6 6 6 3.316406 0 6-2.683594 6-6 .003906-11.183594-1.625-22.3125-4.832031-33.03125-.949219-3.175782-4.296876-4.980469-7.472657-4.027344zm0 0"/><path d="m429.972656 134.0625c-16.328125-30.652344-45.6875-52.238281-79.816406-58.683594-2.109375-.410156-4.277344.339844-5.679688 1.96875-1.40625 1.625-1.835937 3.878906-1.125 5.90625.710938 2.027344 2.453126 3.519532 4.5625 3.914063 30.570313 5.773437 56.863282 25.109375 71.484376 52.566406 1.570312 2.921875 5.207031 4.019531 8.125 2.449219 2.921874-1.566406 4.019531-5.203125 2.453124-8.121094zm0 0"/><path d="m150.761719 269.316406c15.113281 0 27.410156-10.679687 27.410156-23.808594v-74.125l78.027344-19.246093v35.28125c-4.671875-2.730469-9.992188-4.15625-15.40625-4.128907-15.113281 0-27.40625 10.679688-27.40625 23.804688 0 13.128906 12.300781 23.808594 27.40625 23.808594s27.40625-10.679688 27.40625-23.804688v-97.835937c0-1.84375-.847657-3.585938-2.300781-4.722657-1.449219-1.136718-3.34375-1.542968-5.136719-1.101562l-90.03125 22.207031c-2.679688.660157-4.5625 3.066407-4.5625 5.828125v94.359375c-4.671875-2.730469-9.992188-4.15625-15.40625-4.128906-15.113281 0-27.40625 10.679687-27.40625 23.804687 0 13.128907 12.296875 23.808594 27.40625 23.808594zm90.03125-50.414062c-8.5 0-15.40625-5.300782-15.40625-11.804688 0-6.507812 6.914062-11.808594 15.40625-11.808594 8.492187 0 15.40625 5.300782 15.40625 11.804688 0 6.507812-6.910157 11.808594-15.40625 11.808594zm-62.621094-82.730469 78.027344-19.25v22.851563l-78.027344 19.25zm-27.410156 97.53125c8.5 0 15.410156 5.300781 15.410156 11.804687 0 6.507813-6.914063 11.808594-15.410156 11.808594-8.496094 0-15.40625-5.300781-15.40625-11.808594 0-6.503906 6.910156-11.804687 15.40625-11.804687zm0 0"/></svg>