<svg height="396pt" viewBox="-16 0 396 396.53" width="396pt" xmlns="http://www.w3.org/2000/svg"><path d="m318.246094 199.351562v-63.351562c0-74.988281-61.007813-136-136-136-74.992188 0-136 61.011719-136 136v63.351562c-30.925782 9.714844-50.132813 40.546876-45.222656 72.585938 4.90625 32.042969 32.464843 55.707031 64.878906 55.714844h18.917968c2.917969 8.226562 11.332032 13.152344 19.933594 11.671875 8.597656-1.484375 14.878906-8.945313 14.875-17.671875v-119.308594c.003906-8.726562-6.277344-16.1875-14.875-17.671875-8.601562-1.480469-17.015625 3.445313-19.933594 11.671875h-18.917968c-2.558594.003906-5.113282.160156-7.65625.460938v-60.800782c0-68.484375 55.515625-124 124-124s124 55.515625 124 124v60.800782c-2.539063-.300782-5.097656-.457032-7.65625-.460938h-18.917969c-2.914063-8.226562-11.332031-13.152344-19.933594-11.671875-8.597656 1.484375-14.878906 8.945313-14.875 17.671875v119.3125c-.003906 8.726562 6.277344 16.191406 14.875 17.671875 8.601563 1.484375 17.019531-3.445313 19.933594-11.671875h12.917969v62.875c0 3.3125 2.6875 6 6 6s6-2.6875 6-6v-63.160156c31.15625-2.855469 55.964844-27.300782 59.285156-58.414063 3.320312-31.109375-15.777344-60.238281-45.628906-69.605469zm-222.480469 2.992188c0-3.277344 2.65625-5.933594 5.933594-5.933594 3.273437 0 5.929687 2.65625 5.929687 5.933594v119.3125c0 3.277344-2.65625 5.933594-5.929687 5.933594-3.277344 0-5.933594-2.65625-5.933594-5.933594zm-29.863281 6h17.863281v107.3125h-17.863281c-29.632813 0-53.65625-24.019531-53.65625-53.65625 0-29.632812 24.023437-53.65625 53.65625-53.65625zm202.824218 113.3125c0 3.277344-2.65625 5.933594-5.929687 5.933594-3.277344 0-5.933594-2.65625-5.933594-5.933594v-119.3125c0-3.277344 2.65625-5.933594 5.933594-5.933594 3.273437 0 5.929687 2.65625 5.929687 5.933594zm29.863282-6h-17.863282v-107.3125h17.863282c29.632812 0 53.65625 24.023438 53.65625 53.65625 0 29.636719-24.023438 53.65625-53.65625 53.65625zm0 0"/></svg>