<svg height="452pt" viewBox="0 -14 452 452" width="452pt" xmlns="http://www.w3.org/2000/svg"><path d="m446 0h-440c-3.3125 0-6 2.6875-6 6v412.5c0 3.3125 2.6875 6 6 6h440c3.3125 0 6-2.6875 6-6v-412.5c0-3.3125-2.6875-6-6-6zm-434 12h54.957031v400.5h-54.957031zm428 400.5h-361.042969v-400.5h361.042969zm0 0"/><path d="m259.480469 342.597656c71.988281 0 130.347656-58.359375 130.347656-130.347656s-58.359375-130.347656-130.347656-130.347656c-71.992188 0-130.347657 58.359375-130.347657 130.347656.078126 71.957031 58.390626 130.265625 130.347657 130.347656zm0-248.699218c65.359375 0 118.347656 52.984374 118.347656 118.347656 0 65.359375-52.984375 118.347656-118.347656 118.347656-65.359375 0-118.347657-52.984375-118.347657-118.34375.070313-65.332031 53.015626-118.273438 118.347657-118.347656zm0 0"/><path d="m257.886719 270.859375c30.605469 0 55.417969-24.8125 55.417969-55.421875s-24.8125-55.421875-55.417969-55.421875c-30.609375 0-55.421875 24.8125-55.421875 55.421875.035156 30.59375 24.824218 55.386719 55.421875 55.421875zm0-98.839844c23.980469 0 43.417969 19.4375 43.417969 43.417969 0 23.984375-19.441407 43.421875-43.421876 43.421875-23.980468 0-43.417968-19.441406-43.417968-43.421875.027344-23.96875 19.449218-43.390625 43.421875-43.417969zm0 0"/><path d="m259.476562 305.933594c3.3125 0 6-2.6875 6-6 0-3.316406-2.6875-6-6-6-44.199218-.085938-80.003906-35.894532-80.089843-80.09375 0-3.3125-2.6875-6-6-6s-6 2.6875-6 6c.09375 50.820312 41.269531 91.996094 92.089843 92.09375zm0 0"/><path d="m259.476562 133.757812c44.195313.082032 80.003907 35.890626 80.089844 80.089844 0 3.3125 2.683594 6 6 6 3.3125 0 6-2.6875 6-6-.097656-50.816406-41.269531-91.988281-92.085937-92.082031-3.3125 0-6 2.683594-6 6 0 3.3125 2.6875 6 6 6zm0 0"/><path d="m257.886719 235.71875c11.199219-.003906 20.277343-9.082031 20.277343-20.28125s-9.082031-20.277344-20.28125-20.277344c-11.199218 0-20.277343 9.078125-20.277343 20.277344.011719 11.195312 9.085937 20.269531 20.28125 20.28125zm0-28.558594c4.570312 0 8.277343 3.707032 8.277343 8.28125 0 4.570313-3.707031 8.277344-8.28125 8.277344-4.570312 0-8.277343-3.707031-8.277343-8.28125.003906-4.570312 3.710937-8.273438 8.28125-8.277344zm0 0"/></svg>