<svg height="418pt" viewBox="-3 0 418 418.01414" width="418pt" xmlns="http://www.w3.org/2000/svg"><path d="m26.007812 385.910156h9.558594v26.105469c0 3.3125 2.6875 6 6 6h42.101563c3.3125 0 6-2.6875 6-6v-26.105469h232.675781v26.105469c0 3.3125 2.6875 6 6 6h42.097656c3.316406 0 6-2.6875 6-6v-26.105469h9.566406c14.351563-.015625 25.984376-11.648437 26-26v-230.679687c-.015624-14.351563-11.648437-25.980469-26-26h-28.941406c-2.0625-11.082031-9.734375-20.296875-20.257812-24.335938l61.578125-68.804687c1.480469-1.589844 1.984375-3.855469 1.320312-5.921875-.664062-2.070313-2.394531-3.617188-4.523437-4.050781-2.128906-.429688-4.324219.324218-5.738282 1.972656l-64.660156 72.246094-70.601562-62.0625c-1.605469-1.4375-3.859375-1.902344-5.902344-1.214844-2.042969.683594-3.5625 2.410156-3.980469 4.527344-.417969 2.113281.332031 4.289062 1.960938 5.699218l66.164062 58.164063c-9.859375 4.300781-16.945312 13.214843-18.910156 23.789062h-267.507813c-14.351562.015625-25.9843745 11.644531-25.9999995 26v230.671875c.015625 14.351563 11.6484375 25.984375 25.9999995 26zm51.664063 20.105469h-30.105469v-20.105469h30.105469zm286.777344 0h-30.101563v-20.105469h30.101563zm-39.160157-317.25c8.960938.015625 16.859376 5.886719 19.449219 14.464844h-38.898437c2.589844-8.578125 10.488281-14.453125 19.449218-14.464844zm-313.28125 40.464844c.007813-7.726563 6.269532-13.988281 14-14h360c7.726563.011719 13.992188 6.273437 14 14v230.679687c-.007812 7.726563-6.273437 13.988282-14 14h-360c-7.730468-.007812-13.992187-6.273437-14-14zm0 0"/><path d="m58.308594 343.667969h211.191406c8.832031-.011719 15.988281-7.167969 16-16v-166.191407c-.011719-8.832031-7.167969-15.992187-16-16h-211.191406c-8.832032.007813-15.992188 7.167969-16 16v166.191407c.007812 8.832031 7.167968 15.988281 16 16zm-4-182.191407c0-2.210937 1.789062-4 4-4h211.191406c2.207031 0 4 1.789063 4 4v166.191407c0 2.207031-1.792969 4-4 4h-211.191406c-2.210938-.003907-4-1.792969-4-4zm0 0"/><path d="m328.953125 293.667969c3.3125 0 6-2.6875 6-6v-16c0-3.316407-2.6875-6-6-6s-6 2.683593-6 6v16c0 3.3125 2.6875 6 6 6zm0 0"/><path d="m350.953125 293.667969c3.3125 0 6-2.6875 6-6v-16c0-3.316407-2.6875-6-6-6s-6 2.683593-6 6v16c0 3.3125 2.6875 6 6 6zm0 0"/><path d="m306.953125 293.667969c3.3125 0 6-2.6875 6-6v-16c0-3.316407-2.6875-6-6-6s-6 2.683593-6 6v16c0 3.3125 2.6875 6 6 6zm0 0"/><path d="m372.953125 293.667969c3.3125 0 6-2.6875 6-6v-16c0-3.316407-2.6875-6-6-6s-6 2.683593-6 6v16c0 3.3125 2.6875 6 6 6zm0 0"/><path d="m328.953125 243.667969c3.3125 0 6-2.6875 6-6v-16c0-3.316407-2.6875-6-6-6s-6 2.683593-6 6v16c0 3.3125 2.6875 6 6 6zm0 0"/><path d="m350.953125 243.667969c3.3125 0 6-2.6875 6-6v-16c0-3.316407-2.6875-6-6-6s-6 2.683593-6 6v16c0 3.3125 2.6875 6 6 6zm0 0"/><path d="m306.953125 243.667969c3.3125 0 6-2.6875 6-6v-16c0-3.316407-2.6875-6-6-6s-6 2.683593-6 6v16c0 3.3125 2.6875 6 6 6zm0 0"/><path d="m372.953125 243.667969c3.3125 0 6-2.6875 6-6v-16c0-3.316407-2.6875-6-6-6s-6 2.683593-6 6v16c0 3.3125 2.6875 6 6 6zm0 0"/><path d="m139.992188 274.484375c9.191406-.015625 16.722656-7.292969 17.058593-16.476563.019531-.199218.03125-.40625.03125-.613281v-17.074219l35.71875-7.234374v22c-7.238281-2.222657-15.074219.566406-19.28125 6.863281-4.203125 6.292969-3.78125 14.601562 1.042969 20.433593 4.824219 5.835938 12.90625 7.8125 19.878906 4.863282 6.972656-2.949219 11.183594-10.121094 10.359375-17.648438v-57.511718c0-3.441407-1.546875-6.699219-4.207031-8.875-2.664062-2.175782-6.164062-3.042969-9.535156-2.359376l-36.789063 7.453126c-5.335937 1.09375-9.171875 5.785156-9.1875 11.234374v21.542969c-6.421875-2.003906-13.417969-.058593-17.882812 4.976563-4.460938 5.035156-5.554688 12.214844-2.792969 18.351562 2.757812 6.132813 8.859375 10.078125 15.585938 10.074219zm47.820312 2.039063c-2.679688 0-4.902344-2.074219-5.082031-4.75-.179688-2.675782 1.746093-5.03125 4.402343-5.386719 2.660157-.355469 5.136719 1.410156 5.667969 4.039062v.796875c0 .246094.015625.488282.046875.730469-.257812 2.589844-2.433594 4.5625-5.035156 4.570313zm-30.730469-56.550782 35.71875-7.234375v8.105469l-35.71875 7.234375zm-17.089843 32.328125c2.8125 0 5.089843 2.28125 5.09375 5.089844 0 2.8125-2.28125 5.09375-5.09375 5.09375s-5.089844-2.28125-5.089844-5.089844c.003906-2.8125 2.28125-5.085937 5.089844-5.09375zm0 0"/></svg>