<svg height="492pt" viewBox="-9 0 491 492" width="492pt" xmlns="http://www.w3.org/2000/svg"><path d="m206.652344 127.367188c-47.816406 0-86.582032 38.765624-86.582032 86.582031 0 47.816406 38.761719 86.582031 86.578126 86.582031 47.820312 0 86.582031-38.761719 86.582031-86.582031-.050781-47.792969-38.785157-86.523438-86.578125-86.582031zm0 161.164062c-41.191406 0-74.582032-33.390625-74.582032-74.578125 0-41.191406 33.390626-74.582031 74.578126-74.585937 41.191406 0 74.582031 33.394531 74.582031 74.582031-.042969 41.171875-33.40625 74.535156-74.578125 74.582031zm0 0"/><path d="m71.195312 237.472656c3.28125-.472656 5.554688-3.519531 5.078126-6.800781-.921876-6.402344-1.382813-12.859375-1.386719-19.328125 0-3.316406-2.6875-6-6-6-3.316407 0-6 2.683594-6 6 .003906 7.039062.507812 14.070312 1.511719 21.039062.425781 2.949219 2.949218 5.136719 5.929687 5.140626.289063.003906.578125-.011719.867187-.050782zm0 0"/><path d="m209.253906 345.71875c-28.9375.066406-57.109375-9.285156-80.265625-26.640625-22.640625-16.953125-39.410156-40.566406-47.964843-67.527344-.992188-3.160156-4.359376-4.921875-7.523438-3.929687-3.160156.992187-4.921875 4.359375-3.929688 7.519531 9.316407 29.367187 27.578126 55.089844 52.238282 73.558594 25.222656 18.90625 55.914062 29.09375 87.4375 29.023437 3.316406 0 6-2.6875 6-6 0-3.316406-2.683594-6-6-6zm0 0"/><path d="m348.011719 189.28125c-3.292969.375-5.65625 3.351562-5.277344 6.644531.585937 5.121094.878906 10.273438.882813 15.425781 0 3.316407 2.6875 6 6 6s6-2.683593 6-6c-.003907-5.609374-.324219-11.214843-.960938-16.789062-.375-3.292969-3.351562-5.660156-6.644531-5.28125zm0 0"/><path d="m344.523438 179.824219c1.875 0 3.640624-.875 4.773437-2.367188 1.136719-1.492187 1.507813-3.425781 1.011719-5.230469-17.726563-63.285156-75.335938-107.085937-141.054688-107.242187-3.3125 0-6 2.6875-6 6s2.6875 6 6 6c60.332032.140625 113.222656 40.347656 129.5 98.441406.71875 2.59375 3.078125 4.394531 5.769532 4.398438zm0 0"/><path d="m206.652344 184.667969c-16.171875 0-29.285156 13.109375-29.285156 29.28125s13.109374 29.28125 29.28125 29.28125c16.171874.003906 29.285156-13.109375 29.285156-29.28125-.019532-16.164063-13.117188-29.261719-29.28125-29.28125zm0 46.5625c-9.542969.003906-17.285156-7.734375-17.285156-17.277344 0-9.546875 7.738281-17.285156 17.28125-17.285156 9.546874 0 17.285156 7.738281 17.285156 17.28125-.011719 9.539062-7.742188 17.269531-17.28125 17.28125zm0 0"/><path d="m468.398438 273.289062-56.167969-15.910156c3.769531-15.9375 5.707031-32.253906 5.769531-48.628906.003906-115.105469-93.644531-208.75-208.746094-208.75-115.105468 0-208.753906 93.644531-208.753906 208.75s93.644531 208.75 208.753906 208.75c43.28125 0 85.066406-13.089844 119-37.066406v19.488281c-3.796875-.683594-7.644531-1.027344-11.5-1.023437-30.191406 0-54.753906 20.882812-54.753906 46.550781s24.566406 46.550781 54.757812 46.550781c30.191407 0 54.75-20.882812 54.75-46.550781 0-2.195313.128907-115.769531.164063-146.949219l93.523437 25.351562c1.800782.492188 3.730469.109376 5.214844-1.023437 1.484375-1.136719 2.355469-2.898437 2.355469-4.765625v-39c-.003906-2.683594-1.785156-5.042969-4.367187-5.773438zm-259.144532 132.210938c-108.492187 0-196.753906-88.261719-196.753906-196.75s88.261719-196.75 196.753906-196.75c108.488282 0 196.75 88.261719 196.75 196.75-.066406 15.269531-1.855468 30.484375-5.332031 45.351562l-64.78125-18.351562c-1.808594-.511719-3.753906-.148438-5.253906.988281-1.5 1.132813-2.382813 2.902344-2.382813 4.785157v123.960937c-33.054687 25.820313-75.1875 40.015625-119 40.015625zm251.511719-95.28125-93.511719-25.351562c-1.804687-.488282-3.730468-.109376-5.214844 1.023437-1.484374 1.132813-2.355468 2.894531-2.355468 4.761719 0 1.523437-.175782 152.257812-.175782 154.800781 0 19.050781-19.175781 34.550781-42.75 34.550781-23.574218 0-42.75-15.5-42.75-34.550781s19.175782-34.554687 42.75-34.554687c5.3125-.015626 10.597657.796874 15.660157 2.410156 1.828125.585937 3.820312.265625 5.371093-.863282 1.550782-1.128906 2.464844-2.929687 2.464844-4.847656v-158.140625l120.511719 34.144531zm0 0"/></svg>