<svg height="412pt" viewBox="0 -42 412 412" width="412pt" xmlns="http://www.w3.org/2000/svg"><path d="m376 0h-340c-19.871094.0234375-35.9765625 16.128906-36 36v255.796875c.0234375 19.871094 16.128906 35.976563 36 36h340c19.871094-.023437 35.976562-16.128906 36-36v-255.800781c-.023438-19.871094-16.128906-35.9726565-36-35.996094zm-49.027344 12h20v168h-20zm-84.214844 0h20v168h-20zm-84.21875 0h20v168h-20zm-84.214843 0h20v168h-20zm4 303.789062h-42.324219c-13.25-.015624-23.984375-10.75-24-24v-255.792968c.015625-13.25 10.75-23.984375 24-24h26.324219v174c0 3.3125 2.6875 6 6 6h10zm84.214843 0h-72.214843v-123.789062h10c3.316406 0 6-2.6875 6-6v-174h40.214843v174c0 3.3125 2.6875 6 6 6h10zm84.21875 0h-72.21875v-123.789062h10c3.316407 0 6-2.6875 6-6v-174h40.21875v174c0 3.3125 2.683594 6 6 6h10zm84.214844 0h-72.214844v-123.789062h10c3.3125 0 6-2.6875 6-6v-174h40.214844v174c0 3.3125 2.683594 6 6 6h10zm69.027344-23.992187c-.015625 13.246094-10.75 23.984375-24 24h-33.027344v-123.796875h10c3.3125 0 6-2.6875 6-6v-174h17.027344c13.25.015625 23.984375 10.75 24 24zm0 0"/></svg>