<svg height="484pt" viewBox="-118 0 484 484.62375" width="484pt" xmlns="http://www.w3.org/2000/svg"><path d="m46.3125 375.902344c3.3125 0 6-2.6875 6-6v-110c0-3.3125-2.6875-6-6-6h-14v-27.417969c0-3.316406-2.6875-6-6-6s-6 2.683594-6 6v27.417969h-14c-3.3125 0-6 2.6875-6 6v110c0 3.3125 2.6875 6 6 6zm-34-110h28v18h-28zm0 30h28v68h-28zm0 0"/><path d="m20.3125 209.304688c0 3.316406 2.6875 6 6 6s6-2.683594 6-6v-.355469c0-3.3125-2.6875-6-6-6s-6 2.6875-6 6zm0 0"/><path d="m41.3125 395.902344c3.3125 0 6-2.6875 6-6s-2.6875-6-6-6h-30c-3.3125 0-6 2.6875-6 6s2.6875 6 6 6zm0 0"/><path d="m26.3125 193.304688c3.3125 0 6-2.683594 6-6v-.355469c0-3.3125-2.6875-6-6-6s-6 2.6875-6 6v.355469c0 3.316406 2.6875 6 6 6zm0 0"/><path d="m242.855469 72.949219h-14v-27.417969c0-3.3125-2.6875-6-6-6-3.316407 0-6 2.6875-6 6v27.417969h-14c-3.316407 0-6 2.6875-6 6v110c0 3.316406 2.683593 6 6 6h40c3.3125 0 6-2.683594 6-6v-110c0-3.3125-2.6875-6-6-6zm-6 110h-28v-68h28zm0-80h-28v-18h28zm0 0"/><path d="m216.855469 28.355469c0 3.3125 2.683593 6 6 6 3.3125 0 6-2.6875 6-6v-.355469c0-3.3125-2.6875-6-6-6-3.316407 0-6 2.6875-6 6zm0 0"/><path d="m237.855469 202.949219h-30c-3.316407 0-6 2.6875-6 6 0 3.316406 2.683593 6 6 6h30c3.3125 0 6-2.683594 6-6 0-3.3125-2.6875-6-6-6zm0 0"/><path d="m232.855469 222.949219h-20c-3.316407 0-6 2.6875-6 6 0 3.316406 2.683593 6 6 6h4v103.484375c0 14.066406-11.40625 25.46875-25.472657 25.46875-14.066406 0-25.46875-11.402344-25.46875-25.46875v-21.738282c-.339843-23.394531-19.398437-42.179687-42.796874-42.179687-23.394532 0-42.453126 18.785156-42.792969 42.179687v131.734376c.054687 8.613281-4.507813 16.59375-11.960938 20.917968-7.449219 4.320313-16.644531 4.320313-24.09375 0-7.449219-4.324218-12.011719-12.304687-11.957031-20.917968v-32.527344h4c3.3125 0 6-2.6875 6-6s-2.6875-6-6-6h-20c-3.3125 0-6 2.6875-6 6s2.6875 6 6 6h4v32.527344c-.070312 12.90625 6.777344 24.863281 17.945312 31.339843 11.167969 6.472657 24.949219 6.472657 36.117188 0 11.167969-6.476562 18.015625-18.433593 17.949219-31.339843v-131.734376c.285156-16.800781 13.988281-30.273437 30.792969-30.273437 16.804687 0 30.507812 13.472656 30.796874 30.273437v21.738282c0 20.691406 16.777344 37.46875 37.46875 37.46875 20.695313 0 37.472657-16.777344 37.472657-37.46875v-103.484375h4c3.3125 0 6-2.683594 6-6 0-3.3125-2.6875-6-6-6zm0 0"/><path d="m222.855469 12.355469c3.3125 0 6-2.6875 6-6v-.355469c0-3.3125-2.6875-6-6-6-3.316407 0-6 2.6875-6 6v.355469c0 3.3125 2.683593 6 6 6zm0 0"/></svg>