<svg height="392pt" viewBox="0 -60 392 392" width="392pt" xmlns="http://www.w3.org/2000/svg"><path d="m366 0h-340c-14.351562.015625-25.984375 11.648438-26 26v220c.015625 14.351562 11.648438 25.984375 26 26h340c14.351562-.015625 25.984375-11.648438 26-26v-220c-.015625-14.351562-11.648438-25.984375-26-26zm-260.292969 260 14-28h152.585938l14 28zm274.292969-14c-.007812 7.730469-6.269531 13.992188-14 14h-66.292969l-18.339843-36.683594c-1.015626-2.03125-3.09375-3.316406-5.367188-3.316406h-160c-2.273438 0-4.351562 1.285156-5.367188 3.316406l-18.339843 36.683594h-66.292969c-7.730469-.007812-13.992188-6.269531-14-14v-220c.007812-7.730469 6.269531-13.992188 14-14h340c7.730469.007812 13.992188 6.269531 14 14zm0 0"/><path d="m298.90625 100h-205.8125c-19.882812 0-36 16.117188-36 36s16.117188 36 36 36h205.8125c19.882812 0 36-16.117188 36-36s-16.117188-36-36-36zm-205.8125 60c-13.253906 0-24-10.746094-24-24s10.746094-24 24-24 24 10.746094 24 24c-.015625 13.25-10.753906 23.984375-24 24zm179.007812 0h-152.203124c12.261718-13.652344 12.261718-34.347656 0-48h152.203124c-12.261718 13.652344-12.261718 34.347656 0 48zm26.800782 0c-13.253906 0-24-10.746094-24-24s10.746094-24 24-24 24 10.746094 24 24c-.015625 13.246094-10.75 23.984375-23.996094 24zm0 0"/><path d="m32.285156 21.375c-6.074218 0-11 4.925781-11 11s4.925782 11 11 11c6.078125 0 11-4.925781 11-11-.003906-6.074219-4.925781-10.992188-11-11zm0 12c-.550781 0-1-.449219-1-1 0-.554688.449219-1 1-1 .554688 0 1 .445312 1 1 0 .550781-.445312 1-1 1zm0 0"/><path d="m358.421875 21.375c-6.074219 0-11 4.925781-11 11s4.925781 11 11 11 11-4.925781 11-11c-.007813-6.074219-4.925781-10.992188-11-11zm0 12c-.550781 0-1-.449219-1-1 0-.554688.449219-1 1-1s1 .445312 1 1c0 .550781-.449219 1-1 1zm0 0"/></svg>