<svg height="461pt" viewBox="-4 0 461 461.93805" width="461pt" xmlns="http://www.w3.org/2000/svg"><path d="m378.210938 150.789062c33.636718.019532 63.214843-22.246093 72.503906-54.574218 9.289062-32.324219-3.957032-66.894532-32.472656-84.734375-28.511719-17.839844-65.394532-14.636719-90.402344 7.855469-25.011719 22.492187-32.097656 58.828124-17.371094 89.066406l-103.667969 49.746094c-30.417969-37.746094-81.101562-52.597657-127.082031-37.238282s-77.558594 57.691406-79.183594 106.140625c-1.625 48.453125 27.046875 92.804688 71.894532 111.210938 44.847656 18.40625 96.410156 6.984375 129.292968-28.636719l106.539063 48.859375c-15.050781 37.582031 2.257812 80.339844 39.207031 96.875 36.953125 16.535156 80.367188.949219 98.359375-35.316406 17.992187-36.261719 4.148437-80.265625-31.371094-99.6875s-80.035156-7.339844-100.859375 27.375l-103.933594-47.664063c28.871094-38.796875 30.585938-91.453125 4.296876-132.046875l102.65625-49.257812c14.089843 20.070312 37.074218 32.015625 61.59375 32.027343zm0 299.023438c-13.113282.007812-25.902344-4.074219-36.585938-11.683594.277344-20.007812 16.574219-36.082031 36.585938-36.082031 20.011718 0 36.308593 16.074219 36.585937 36.082031-10.679687 7.609375-23.472656 11.691406-36.585937 11.683594zm0-126.703125c24.90625-.019531 47.507812 14.5625 57.753906 37.261719 10.242187 22.699218 6.226562 49.296875-10.265625 67.957031-4.851563-22.339844-24.625-38.28125-47.488281-38.28125-22.863282 0-42.632813 15.941406-47.484376 38.28125-16.496093-18.660156-20.515624-45.257813-10.269531-67.957031 10.246094-22.703125 32.847657-37.285156 57.753907-37.261719zm-157.648438-92.160156c0 57.4375-46.5625 104-104 104s-104-46.5625-104-104 46.5625-104 104-104c57.410156.0625 103.933594 46.589843 104 104zm157.648438-92.160157c-13.019532.007813-25.722657-4.015624-36.363282-11.523437 2.089844-18.507813 17.742188-32.492187 36.363282-32.492187 18.625 0 34.277343 13.984374 36.363281 32.492187-10.636719 7.507813-23.34375 11.53125-36.363281 11.523437zm0-126.699218c25.101562-.015625 47.84375 14.804687 57.96875 37.773437s5.726562 49.753907-11.21875 68.273438c-5.917969-20.914063-25.011719-35.355469-46.75-35.355469-21.734376 0-40.828126 14.441406-46.75 35.355469-16.941407-18.519531-21.34375-45.304688-11.21875-68.273438 10.125-22.972656 32.867187-37.792969 57.96875-37.777343zm0 0"/><path d="m378.210938 75.601562c15.078124 0 27.300781-12.222656 27.300781-27.296874 0-15.078126-12.222657-27.300782-27.300781-27.300782-15.078126 0-27.300782 12.222656-27.300782 27.300782.019532 15.070312 12.230469 27.28125 27.300782 27.296874zm0-42.597656c8.449218 0 15.300781 6.847656 15.300781 15.300782 0 8.449218-6.851563 15.296874-15.300781 15.296874-8.449219 0-15.300782-6.847656-15.300782-15.296874.011719-8.449219 6.855469-15.292969 15.300782-15.300782zm0 0"/><path d="m378.210938 382.875c15.078124 0 27.300781-12.222656 27.300781-27.300781s-12.222657-27.300781-27.300781-27.300781c-15.078126 0-27.300782 12.222656-27.300782 27.300781.019532 15.070312 12.230469 27.285156 27.300782 27.300781zm0-42.601562c8.449218 0 15.300781 6.851562 15.300781 15.300781s-6.851563 15.300781-15.300781 15.300781c-8.449219 0-15.300782-6.851562-15.300782-15.300781.011719-8.445313 6.855469-15.289063 15.300782-15.300781zm0 0"/><path d="m130.21875 154.722656c-1.757812-.332031-3.566406.136719-4.941406 1.277344s-2.167969 2.835938-2.167969 4.621094v43.257812.226563 57.011719c-5.25-3.316407-11.34375-5.058594-17.550781-5.019532-16.300782 0-29.554688 11.480469-29.554688 25.59375 0 14.109375 13.257813 25.585938 29.554688 25.585938 16.292968 0 29.550781-11.480469 29.550781-25.589844v-70.472656l50.347656 9.449218c1.753907.332032 3.5625-.136718 4.9375-1.277343s2.167969-2.835938 2.167969-4.621094v-43.363281c0-2.886719-2.054688-5.367188-4.894531-5.898438zm-24.660156 140.554688c-9.679688 0-17.554688-6.097656-17.554688-13.589844s7.875-13.589844 17.554688-13.589844c9.675781 0 17.550781 6.097656 17.550781 13.589844s-7.875 13.589844-17.550781 13.589844zm75.003906-87.742188-45.453125-8.53125v-31.15625l45.453125 8.535156zm0 0"/><path d="m46.5625 180.046875h50.847656c3.316406 0 6-2.683594 6-6 0-3.3125-2.683594-6-6-6h-50.847656c-3.3125 0-6 2.6875-6 6 0 3.316406 2.6875 6 6 6zm0 0"/><path d="m46.5625 206.460938h50.847656c3.316406 0 6-2.6875 6-6s-2.683594-6-6-6h-50.847656c-3.3125 0-6 2.6875-6 6s2.6875 6 6 6zm0 0"/><path d="m103.410156 226.875c0-3.3125-2.683594-6-6-6h-50.847656c-3.3125 0-6 2.6875-6 6 0 3.316406 2.6875 6 6 6h50.847656c3.316406 0 6-2.683594 6-6zm0 0"/></svg>