<svg height="405pt" viewBox="-6 0 405 405.88573" width="405pt" xmlns="http://www.w3.org/2000/svg"><path d="m26.441406 405.886719h340c14.355469-.015625 25.984375-11.648438 26-26v-223.890625c-.015625-14.351563-11.644531-25.984375-26-26h-149.554687v-16.171875c-.003907-2.542969-1.609375-4.808594-4.007813-5.652344l131.664063-71.09375c7.609375 7.773437 19.78125 8.753906 28.539062 2.296875 8.753907-6.457031 11.414063-18.375 6.238281-27.945312-5.179687-9.566407-16.613281-13.855469-26.808593-10.054688-10.191407 3.796875-16.027344 14.527344-13.679688 25.148438l-150.574219 81.300781h-19.59375c-3.3125 0-6 2.6875-6 6v16.171875h-136.222656c-14.351562.015625-25.980468 11.644531-26 26v223.890625c.015625 14.351562 11.648438 25.984375 26 26zm333.714844-393.890625c5.429688 0 9.832031 4.40625 9.832031 9.835937 0 5.429688-4.402343 9.835938-9.835937 9.832031-5.429688 0-9.832032-4.402343-9.832032-9.832031.007813-5.429687 4.40625-9.828125 9.835938-9.835937zm-185.492188 107.828125h30.222657v10.171875h-30.222657zm-162.222656 36.171875c.007813-7.726563 6.273438-13.992188 14-14h340c7.730469.007812 13.992188 6.273437 14 14v223.890625c-.007812 7.726562-6.269531 13.992187-14 14h-340c-7.726562-.007813-13.992187-6.273438-14-14zm0 0"/><path d="m48.664062 236.441406h295.558594c3.3125 0 6-2.6875 6-6v-52.78125c0-3.3125-2.6875-6-6-6h-295.558594c-3.3125 0-6 2.6875-6 6v52.78125c0 3.3125 2.6875 6 6 6zm6-52.777344h11.222657v26.722657c0 3.3125 2.6875 6 6 6s6-2.6875 6-6v-26.726563h19.269531v15.113282c0 3.3125 2.6875 6 6 6 3.316406 0 6-2.6875 6-6v-15.113282h19.273438v26.722656c0 3.3125 2.683593 6 6 6 3.3125 0 6-2.6875 6-6v-26.722656h19.269531v15.113282c0 3.3125 2.6875 6 6 6s6-2.6875 6-6v-15.113282h19.273437v26.722656c0 3.3125 2.683594 6 6 6 3.3125 0 6-2.6875 6-6v-26.722656h19.269532v15.113282c0 3.3125 2.6875 6 6 6s6-2.6875 6-6v-15.113282h19.269531v26.722656c0 3.3125 2.6875 6 6 6 3.316406 0 6-2.6875 6-6v-26.722656h19.269531v15.113282c0 3.3125 2.6875 6 6 6 3.316406 0 6-2.6875 6-6v-15.113282h19.273438v26.722656c0 3.3125 2.683593 6 6 6 3.3125 0 6-2.6875 6-6v-26.722656h10.167968v40.78125h-283.558594zm0 0"/><path d="m44.144531 329.554688c1.785157 7.84375 5.171875 15.234374 9.941407 21.710937.21875.359375.472656.695313.757812 1 11.105469 14.503906 28.328125 23.011719 46.597656 23.011719 18.265625 0 35.492188-8.507813 46.59375-23.011719.289063-.304687.542969-.640625.757813-1 4.769531-6.476563 8.15625-13.867187 9.945312-21.710937.078125-.261719.140625-.527344.183594-.800782 1.550781-7.230468 1.710937-14.691406.476563-21.984375-.03125-.296875-.085938-.589843-.15625-.875-1.421876-7.769531-4.40625-15.167969-8.765626-21.75-.207031-.390625-.457031-.753906-.742187-1.089843-10.957031-15.863282-29.011719-25.335938-48.292969-25.335938-19.285156 0-37.335937 9.472656-48.296875 25.335938-.285156.335937-.535156.699218-.738281 1.089843-4.363281 6.582031-7.347656 13.980469-8.765625 21.75-.074219.285157-.128906.578125-.15625.875-1.238281 7.292969-1.078125 14.753907.472656 21.984375.042969.273438.105469.539063.1875.800782zm57.296875 33.71875c-9.96875.011718-19.679687-3.183594-27.699218-9.109376h55.402343c-8.019531 5.925782-17.730469 9.121094-27.703125 9.109376zm39.082032-21.109376h-78.160157c-1.742187-2.648437-3.210937-5.464843-4.382812-8.410156h86.925781c-1.171875 2.945313-2.640625 5.761719-4.382812 8.410156zm-39.082032-72.445312c11.132813-.007812 21.898438 3.972656 30.347656 11.222656h-60.691406c8.449219-7.25 19.214844-11.230468 30.34375-11.222656zm-40.386718 23.222656h80.777343c1.5625 2.667969 2.855469 5.484375 3.859375 8.40625h-88.496094c1.003907-2.921875 2.296876-5.738281 3.859376-8.40625zm-6.273438 20.40625h93.320312c.070313 1.042969.121094 2.089844.121094 3.148438-.003906 1.757812-.105468 3.511718-.300781 5.257812h-92.953125c-.199219-1.746094-.296875-3.5-.300781-5.257812-.003907-1.054688.042969-2.105469.113281-3.148438zm0 0"/><path d="m349.242188 305.890625c-1.421876-7.769531-4.402344-15.167969-8.765626-21.75-.207031-.390625-.453124-.753906-.738281-1.089844-10.960937-15.863281-29.011719-25.335937-48.296875-25.335937-19.28125 0-37.335937 9.472656-48.296875 25.335937-.285156.335938-.53125.699219-.738281 1.089844-4.363281 6.582031-7.34375 13.980469-8.765625 21.75-.074219.285156-.125.578125-.15625.875-1.234375 7.292969-1.074219 14.753906.472656 21.984375.042969.273438.105469.539062.1875.800781 1.789063 7.84375 5.171875 15.234375 9.945313 21.710938.214844.359375.46875.695312.753906 1 11.105469 14.503906 28.332031 23.011719 46.597656 23.011719 18.269532 0 35.492188-8.507813 46.597656-23.011719.285157-.304688.539063-.640625.753907-1 4.773437-6.476563 8.160156-13.867188 9.945312-21.710938.082031-.261719.144531-.527343.1875-.800781 1.546875-7.230469 1.710938-14.691406.472657-21.984375-.03125-.296875-.082032-.589844-.15625-.875zm-57.800782-36.171875c11.132813-.007812 21.898438 3.972656 30.347656 11.222656h-60.691406c8.449219-7.25 19.214844-11.230468 30.34375-11.222656zm-40.386718 23.222656h80.777343c1.5625 2.667969 2.855469 5.484375 3.859375 8.40625h-88.496094c1.003907-2.921875 2.296876-5.738281 3.859376-8.40625zm40.386718 70.332032c-9.96875.011718-19.679687-3.183594-27.699218-9.109376h55.402343c-8.019531 5.925782-17.730469 9.121094-27.703125 9.109376zm39.082032-21.109376h-78.160157c-1.742187-2.648437-3.210937-5.464843-4.382812-8.410156h86.925781c-1.171875 2.945313-2.640625 5.761719-4.382812 8.410156zm7.394531-20.410156h-92.949219c-.199219-1.746094-.296875-3.5-.300781-5.257812 0-1.058594.050781-2.105469.117187-3.148438h93.320313c.070312 1.042969.121093 2.089844.121093 3.148438-.007812 1.757812-.109374 3.515625-.308593 5.257812zm0 0"/></svg>