<svg height="472pt" viewBox="0 -69 472 472" width="472pt" xmlns="http://www.w3.org/2000/svg"><path d="m466 128.859375h-79.269531c-3.3125 0-6 2.683594-6 6 0 3.3125 2.6875 6 6 6h79.269531c3.3125 0 6-2.6875 6-6 0-3.316406-2.6875-6-6-6zm0 0"/><path d="m6 140.859375h157.089844c3.3125 0 6-2.6875 6-6 0-3.316406-2.6875-6-6-6h-157.089844c-3.3125 0-6 2.683594-6 6 0 3.3125 2.6875 6 6 6zm0 0"/><path d="m466 0h-460c-3.3125 0-6 2.6875-6 6s2.6875 6 6 6h460c3.3125 0 6-2.6875 6-6s-2.6875-6-6-6zm0 0"/><path d="m466 193.289062h-79.269531c-3.3125 0-6 2.683594-6 6 0 3.3125 2.6875 6 6 6h79.269531c3.3125 0 6-2.6875 6-6 0-3.316406-2.6875-6-6-6zm0 0"/><path d="m223.089844 193.289062c-3.3125 0-6 2.683594-6 6 0 3.3125 2.6875 6 6 6h26.101562c3.3125 0 6-2.6875 6-6 0-3.316406-2.6875-6-6-6zm0 0"/><path d="m6 205.289062h157.089844c3.3125 0 6-2.6875 6-6 0-3.316406-2.6875-6-6-6h-157.089844c-3.3125 0-6 2.683594-6 6 0 3.3125 2.6875 6 6 6zm0 0"/><path d="m466 322.144531h-460c-3.3125 0-6 2.6875-6 6 0 3.316407 2.6875 6 6 6h460c3.3125 0 6-2.683593 6-6 0-3.3125-2.6875-6-6-6zm0 0"/><path d="m466 257.71875h-242.910156c-3.3125 0-6 2.683594-6 6 0 3.3125 2.6875 6 6 6h242.910156c3.3125 0 6-2.6875 6-6 0-3.316406-2.6875-6-6-6zm0 0"/><path d="m6 269.71875h80.34375c3.3125 0 6-2.6875 6-6 0-3.316406-2.6875-6-6-6h-80.34375c-3.3125 0-6 2.683594-6 6 0 3.3125 2.6875 6 6 6zm0 0"/><path d="m466 64.429688h-79.269531c-3.3125 0-6 2.6875-6 6s2.6875 6 6 6h79.269531c3.3125 0 6-2.6875 6-6s-2.6875-6-6-6zm0 0"/><path d="m6 76.429688h157.089844c3.3125 0 6-2.6875 6-6s-2.6875-6-6-6h-157.089844c-3.3125 0-6 2.6875-6 6s2.6875 6 6 6zm0 0"/><path d="m317.816406 166.527344c-24.761718 0-44.90625 17.210937-44.90625 38.363281 0 21.15625 20.144532 38.363281 44.90625 38.363281 24.765625 0 44.910156-17.207031 44.910156-38.363281v-177.816406c0-1.84375-.847656-3.585938-2.300781-4.722657-1.449219-1.140624-3.34375-1.546874-5.136719-1.105468l-163.636718 40.363281c-2.679688.664063-4.5625 3.066406-4.5625 5.828125v181.203125c-8.207032-7.554687-19.917969-12.296875-32.90625-12.296875-24.765625 0-44.910156 17.207031-44.910156 38.363281s20.144531 38.367188 44.910156 38.367188c24.761718 0 44.90625-17.210938 44.90625-38.363281v-138.574219l151.636718-37.402344v80.089844c-8.207031-7.558594-19.917968-12.296875-32.910156-12.296875zm0 64.726562c-18.144531 0-32.90625-11.824218-32.90625-26.363281 0-14.535156 14.761719-26.363281 32.90625-26.363281 18.148438 0 32.910156 11.828125 32.910156 26.363281 0 14.539063-14.761718 26.363281-32.910156 26.363281zm-163.632812 69.820313c-18.148438 0-32.910156-11.828125-32.910156-26.363281 0-14.539063 14.761718-26.367188 32.910156-26.367188 18.144531 0 32.90625 11.828125 32.90625 26.367188 0 14.535156-14.761719 26.363281-32.90625 26.363281zm44.90625-177.300781v-51.636719l151.636718-37.402344v51.636719zm0 0"/></svg>