<svg height="490pt" viewBox="0 -49 490.56 490" width="490pt" xmlns="http://www.w3.org/2000/svg"><path d="m484.558594.28125h-130.199219c-31.402344-.015625-62.5625 5.472656-92.070313 16.21875l-17.007812 6.179688-17-6.183594c-29.507812-10.746094-60.671875-16.234375-92.078125-16.214844h-130.203125c-3.3125 0-6 2.683594-6 6v357.210938c0 3.3125 2.6875 6 6 6h112.53125c41.695312-.023438 83.070312 7.265624 122.25 21.535156l2.445312.890625c.019532.007812.042969.011719.0625.015625.296876.105468.597657.1875.90625.242187.042969.007813.082032.015625.125.019531.632813.113282 1.28125.113282 1.914063 0 .042969-.003906.085937-.011718.125-.019531.308594-.054687.613281-.136719.90625-.242187.023437-.003906.042969-.007813.0625-.015625l2.449219-.890625c39.175781-14.269532 80.554687-21.558594 122.25-21.535156h112.53125c3.316406 0 6-2.6875 6-6v-357.210938c0-3.316406-2.683594-6-6-6zm-245.277344 377.5c-38.835938-13.449219-79.648438-20.308594-120.75-20.292969h-106.53125v-345.207031h124.199219c30.003906-.015625 59.777343 5.230469 87.972656 15.5l15.109375 5.488281zm239.277344-20.292969h-106.53125c-41.097656-.015625-81.910156 6.84375-120.746094 20.292969v-344.511719l15.105469-5.488281c28.191406-10.269531 57.964843-15.515625 87.96875-15.5h124.199219zm0 0"/><path d="m183.179688 222.46875h-58.601563c-3.3125 0-6 2.6875-6 6s2.6875 6 6 6h58.601563c3.3125 0 6-2.6875 6-6s-2.6875-6-6-6zm0 0"/><path d="m62.402344 234.46875h36.164062c3.3125 0 6-2.6875 6-6s-2.6875-6-6-6h-36.164062c-3.316406 0-6 2.6875-6 6s2.683594 6 6 6zm0 0"/><path d="m183.179688 273.175781h-21.1875c-3.3125 0-6 2.683594-6 6 0 3.3125 2.6875 6 6 6h21.1875c3.3125 0 6-2.6875 6-6 0-3.316406-2.6875-6-6-6zm0 0"/><path d="m136.019531 273.175781h-47.160156c-3.3125 0-6 2.683594-6 6 0 3.3125 2.6875 6 6 6h47.160156c3.3125 0 6-2.6875 6-6 0-3.316406-2.6875-6-6-6zm0 0"/><path d="m62.402344 273.175781h-.429688c-3.3125 0-6 2.683594-6 6 0 3.3125 2.6875 6 6 6h.429688c3.3125 0 6-2.6875 6-6 0-3.316406-2.6875-6-6-6zm0 0"/><path d="m427.941406 97.167969h.21875c3.3125 0 6-2.6875 6-6s-2.6875-6-6-6h-.21875c-3.3125 0-6 2.6875-6 6s2.6875 6 6 6zm0 0"/><path d="m301.378906 91.167969c0 3.3125 2.6875 6 6 6h93.953125c3.316407 0 6-2.6875 6-6s-2.683593-6-6-6h-93.953125c-3.3125 0-6 2.6875-6 6zm0 0"/><path d="m428.160156 147.835938h-53.824218c-3.3125 0-6 2.6875-6 6s2.6875 6 6 6h53.824218c3.3125 0 6-2.6875 6-6s-2.6875-6-6-6zm0 0"/><path d="m347.992188 159.835938c3.3125 0 6-2.6875 6-6s-2.6875-6-6-6h-13.640626c-3.3125 0-6 2.6875-6 6s2.6875 6 6 6zm0 0"/><path d="m307.378906 159.835938h.183594c3.3125 0 6-2.6875 6-6s-2.6875-6-6-6h-.183594c-3.3125 0-6 2.6875-6 6s2.6875 6 6 6zm0 0"/><path d="m428.160156 210.503906h-12.535156c-3.3125 0-6 2.6875-6 6 0 3.316406 2.6875 6 6 6h12.535156c3.3125 0 6-2.683594 6-6 0-3.3125-2.6875-6-6-6zm0 0"/><path d="m390.21875 216.503906c0-3.3125-2.6875-6-6-6h-47.992188c-3.3125 0-6 2.6875-6 6 0 3.316406 2.6875 6 6 6h47.992188c3.3125 0 6-2.683594 6-6zm0 0"/><path d="m307.378906 222.503906h3.171875c3.316407 0 6-2.683594 6-6 0-3.3125-2.683593-6-6-6h-3.171875c-3.3125 0-6 2.6875-6 6 0 3.316406 2.6875 6 6 6zm0 0"/><path d="m428.160156 273.175781h-.765625c-3.3125 0-6 2.683594-6 6 0 3.3125 2.6875 6 6 6h.765625c3.3125 0 6-2.6875 6-6 0-3.316406-2.6875-6-6-6zm0 0"/><path d="m401.613281 273.175781h-48.117187c-3.3125 0-6 2.683594-6 6 0 3.3125 2.6875 6 6 6h48.117187c3.3125 0 6-2.6875 6-6 0-3.316406-2.6875-6-6-6zm0 0"/><path d="m327.300781 273.175781h-19.921875c-3.3125 0-6 2.683594-6 6 0 3.3125 2.6875 6 6 6h19.921875c3.316407 0 6-2.6875 6-6 0-3.316406-2.683593-6-6-6zm0 0"/><path d="m81.679688 198.101562c13.941406 0 25.28125-9.886718 25.28125-22.039062v-42.984375l69.082031-27.230469v28.839844c-4.085938-2.183594-8.648438-3.316406-13.28125-3.296875-13.9375 0-25.277344 9.882813-25.277344 22.035156 0 12.148438 11.339844 22.035157 25.277344 22.035157s25.28125-9.886719 25.28125-22.035157v-88.101562c0-1.984375-.984375-3.84375-2.625-4.960938-1.640625-1.117187-3.730469-1.347656-5.574219-.621093l-81.085938 31.964843c-2.292968.902344-3.796874 3.117188-3.796874 5.582031v60.035157c-4.085938-2.1875-8.648438-3.320313-13.28125-3.300781-13.941407 0-25.28125 9.882812-25.28125 22.035156s11.34375 22.042968 25.28125 22.042968zm81.082031-34.632812c-7.199219 0-13.277344-4.601562-13.277344-10.035156 0-5.4375 6.078125-10.035156 13.277344-10.035156s13.28125 4.597656 13.28125 10.035156c0 5.433594-6.082031 10.035156-13.28125 10.035156zm-55.800781-62.101562 69.082031-27.230469v18.8125l-69.082031 27.238281zm-25.28125 64.660156c7.199218 0 13.28125 4.601562 13.28125 10.035156 0 5.4375-6.082032 10.039062-13.28125 10.039062-7.199219 0-13.277344-4.601562-13.277344-10.039062 0-5.433594 6.078125-10.035156 13.277344-10.035156zm0 0"/></svg>