<svg height="382pt" viewBox="-44 0 381 382" width="382pt" xmlns="http://www.w3.org/2000/svg"><path d="m266.5 90h-240c-14.398438 0-26 11.601562-26 26v240c0 14.398438 11.601562 26 26 26h240c14.398438 0 26-11.601562 26-26v-240c0-14.398438-11.601562-26-26-26zm14 266c0 7.699219-6.300781 14-14 14h-240c-7.699219 0-14-6.300781-14-14v-240c0-7.699219 6.300781-14 14-14h240c7.699219 0 14 6.300781 14 14zm0 0"/><path d="m222.300781 203.101562v-28.902343c0-8.597657-7-15.597657-15.601562-15.597657-1 0-2.097657.097657-3.097657.296876l-76.203124 15.402343c-7.296876 1.5-12.5 7.898438-12.5 15.300781v58.5c-12.699219-8.902343-30.296876-5.800781-39.199219 6.898438-8.898438 12.699219-5.800781 30.300781 6.902343 39.199219 12.699219 8.902343 30.296876 5.800781 39.199219-6.898438 3.300781-4.699219 5.097657-10.402343 5.097657-16.199219v-43.902343l83.402343-16.898438v51.699219c-12.800781-8.898438-30.402343-5.601562-39.300781 7.199219s-5.601562 30.402343 7.199219 39.300781 30.402343 5.601562 39.300781-7.199219c3.898438-5.699219 5.601562-12.601562 4.800781-19.402343zm-123.601562 84.296876c-8.898438 0-16.199219-7.199219-16.199219-16.199219s7.199219-16.199219 16.199219-16.199219c8.902343 0 16.199219 7.199219 16.199219 16.199219-.097657 8.902343-7.296876 16.199219-16.199219 16.199219zm28.199219-72.296876v-25.5c0-1.703124 1.203124-3.203124 2.902343-3.601562l76.097657-15.398438c2-.402343 3.902343.898438 4.300781 2.796876 0 .203124.101562.5.101562.703124v24zm67.402343 86.398438c-8.902343 0-16.199219-7.199219-16.199219-16.199219s7.199219-16.199219 16.199219-16.199219c8 0 14.800781 5.796876 16 13.699219v.597657h.097657c1 8.902343-5.296876 16.902343-14.199219 17.902343-.597657.097657-1.199219.199219-1.898438.199219zm0 0"/><path d="m20.5 66c0 3.300781 2.699219 6 6 6h240c3.300781 0 6-2.699219 6-6s-2.699219-6-6-6h-240c-3.300781 0-6 2.699219-6 6zm0 0"/><path d="m30.5 36c0 3.300781 2.699219 6 6 6h220c3.300781 0 6-2.699219 6-6s-2.699219-6-6-6h-220c-3.300781 0-6 2.699219-6 6zm0 0"/><path d="m246.5 12c3.300781 0 6-2.699219 6-6s-2.699219-6-6-6h-200c-3.300781 0-6 2.699219-6 6s2.699219 6 6 6zm0 0"/></svg>