<svg height="490pt" viewBox="0 -35 490.56 490" width="490pt" xmlns="http://www.w3.org/2000/svg"><path d="m484.558594 59.269531h-23.277344v-20.75c0-3.316406-2.6875-6-6-6h-34v-26.238281c0-3.316406-2.6875-6-6-6h-92.507812c-22.511719-.011719-44.851563 3.921875-66.007813 11.628906l-11.484375 4.175782-11.488281-4.175782c-21.152344-7.707031-43.492188-11.640625-66.007813-11.628906h-92.503906c-3.316406 0-6 2.683594-6 6v26.238281h-34c-3.316406 0-6 2.683594-6 6v20.75h-23.28125c-3.3125 0-6 2.683594-6 6v327.210938c0 3.3125 2.6875 6 6 6h112.53125c41.695312-.023438 83.070312 7.265625 122.25 21.535156l2.445312.890625c1.324219.480469 2.777344.480469 4.101563 0l2.445313-.890625c39.179687-14.269531 80.554687-21.558594 122.25-21.535156h112.535156c3.316406 0 6-2.6875 6-6v-327.210938c0-3.316406-2.683594-6-6-6zm-233.277344-32.59375 9.585938-3.488281c19.839843-7.226562 40.792968-10.917969 61.90625-10.90625h86.507812v301.785156h-73.953125c-28.574219-.015625-56.960937 4.621094-84.046875 13.71875zm-170-14.394531h86.503906c21.113282-.011719 42.066406 3.679688 61.90625 10.90625l9.589844 3.488281v301.109375c-27.089844-9.097656-55.476562-13.734375-84.050781-13.71875h-73.949219zm-40 32.238281h28v275.546875c0 3.3125 2.683594 6 6 6h79.949219c29.421875-.015625 58.617187 5.128906 86.261719 15.199219l1.738281.632813c1.324219.480468 2.773437.480468 4.097656 0l1.742187-.632813c27.644532-10.070313 56.839844-15.214844 86.257813-15.199219h79.953125c3.3125 0 6-2.6875 6-6v-275.546875h28v301.5h-92.765625c-37.902344-.019531-75.519531 6.605469-111.136719 19.578125l-.097656.035156-.101562-.035156c-35.617188-12.972656-73.234376-19.597656-111.140626-19.578125h-92.757812zm437.277344 341.960938h-106.53125c-43.09375-.023438-85.855469 7.511719-126.347656 22.257812l-.398438.144531-.402344-.144531c-40.492187-14.746093-83.257812-22.28125-126.351562-22.257812h-106.527344v-315.210938h17.28125v280.75c0 3.3125 2.683594 6 6 6h98.761719c36.507812-.019531 72.734375 6.359375 107.035156 18.855469l2.148437.78125c1.324219.480469 2.777344.480469 4.101563 0l2.148437-.78125c34.300782-12.496094 70.53125-18.878906 107.039063-18.859375h98.765625c3.3125 0 6-2.6875 6-6v-280.746094h17.277344zm0 0"/><path d="m395.0625 79.925781h.21875c3.3125 0 6-2.6875 6-6 0-3.316406-2.6875-6-6-6h-.21875c-3.3125 0-6 2.683594-6 6 0 3.3125 2.6875 6 6 6zm0 0"/><path d="m274.5 79.925781h93.953125c3.3125 0 6-2.6875 6-6 0-3.316406-2.6875-6-6-6h-93.953125c-3.3125 0-6 2.683594-6 6 0 3.3125 2.6875 6 6 6zm0 0"/><path d="m395.28125 130.59375h-53.824219c-3.3125 0-6 2.6875-6 6s2.6875 6 6 6h53.824219c3.3125 0 6-2.6875 6-6s-2.6875-6-6-6zm0 0"/><path d="m301.472656 130.59375c-3.3125 0-6 2.6875-6 6s2.6875 6 6 6h13.640625c3.3125 0 6-2.6875 6-6s-2.6875-6-6-6zm0 0"/><path d="m274.5 142.59375h.183594c3.3125 0 6-2.6875 6-6s-2.6875-6-6-6h-.183594c-3.3125 0-6 2.6875-6 6s2.6875 6 6 6zm0 0"/><path d="m395.28125 193.261719h-12.535156c-3.3125 0-6 2.6875-6 6s2.6875 6 6 6h12.535156c3.3125 0 6-2.6875 6-6s-2.6875-6-6-6zm0 0"/><path d="m357.339844 199.261719c0-3.3125-2.683594-6-6-6h-47.992188c-3.3125 0-6 2.6875-6 6s2.6875 6 6 6h47.992188c3.316406 0 6-2.6875 6-6zm0 0"/><path d="m274.5 205.261719h3.171875c3.316406 0 6-2.6875 6-6s-2.683594-6-6-6h-3.171875c-3.3125 0-6 2.6875-6 6s2.6875 6 6 6zm0 0"/><path d="m395.28125 255.929688h-.761719c-3.316406 0-6 2.6875-6 6s2.683594 6 6 6h.761719c3.3125 0 6-2.6875 6-6s-2.6875-6-6-6zm0 0"/><path d="m374.734375 261.929688c0-3.3125-2.6875-6-6-6h-48.117187c-3.3125 0-6 2.6875-6 6s2.6875 6 6 6h48.117187c3.3125 0 6-2.6875 6-6zm0 0"/><path d="m294.421875 255.929688h-19.921875c-3.3125 0-6 2.6875-6 6s2.6875 6 6 6h19.921875c3.316406 0 6-2.6875 6-6s-2.683594-6-6-6zm0 0"/><path d="m224.078125 79.925781h.21875c3.316406 0 6-2.6875 6-6 0-3.316406-2.683594-6-6-6h-.21875c-3.3125 0-6 2.683594-6 6 0 3.3125 2.6875 6 6 6zm0 0"/><path d="m103.511719 79.925781h93.953125c3.316406 0 6-2.6875 6-6 0-3.316406-2.683594-6-6-6h-93.953125c-3.3125 0-6 2.683594-6 6 0 3.3125 2.6875 6 6 6zm0 0"/><path d="m224.292969 130.59375h-53.824219c-3.3125 0-6 2.6875-6 6s2.6875 6 6 6h53.824219c3.3125 0 6-2.6875 6-6s-2.6875-6-6-6zm0 0"/><path d="m130.488281 130.59375c-3.316406 0-6 2.6875-6 6s2.683594 6 6 6h13.636719c3.3125 0 6-2.6875 6-6s-2.6875-6-6-6zm0 0"/><path d="m103.511719 142.59375h.183593c3.3125 0 6-2.6875 6-6s-2.6875-6-6-6h-.183593c-3.3125 0-6 2.6875-6 6s2.6875 6 6 6zm0 0"/><path d="m224.292969 193.261719h-12.535157c-3.3125 0-6 2.6875-6 6s2.6875 6 6 6h12.535157c3.3125 0 6-2.6875 6-6s-2.6875-6-6-6zm0 0"/><path d="m186.351562 199.261719c0-3.3125-2.6875-6-6-6h-47.992187c-3.3125 0-6 2.6875-6 6s2.6875 6 6 6h47.992187c3.3125 0 6-2.6875 6-6zm0 0"/><path d="m103.511719 205.261719h3.171875c3.316406 0 6-2.6875 6-6s-2.683594-6-6-6h-3.171875c-3.3125 0-6 2.6875-6 6s2.6875 6 6 6zm0 0"/><path d="m224.292969 255.929688h-.761719c-3.316406 0-6 2.6875-6 6s2.683594 6 6 6h.761719c3.3125 0 6-2.6875 6-6s-2.6875-6-6-6zm0 0"/><path d="m203.746094 261.929688c0-3.3125-2.683594-6-6-6h-48.117188c-3.3125 0-6 2.6875-6 6s2.6875 6 6 6h48.117188c3.316406 0 6-2.6875 6-6zm0 0"/><path d="m123.433594 255.929688h-19.921875c-3.3125 0-6 2.6875-6 6s2.6875 6 6 6h19.921875c3.316406 0 6-2.6875 6-6s-2.683594-6-6-6zm0 0"/></svg>